<!--
  Company: EonHive Inc.
  Title: URK Stacked Lockup On Dark
  Purpose: Full public stacked lockup for dark centered compositions.
  Author: Stan Nesi
  Created: 2026-05-01
  Updated: 2026-05-01
  Notes: Vibe coded with Codex.
-->
<svg xmlns="http://www.w3.org/2000/svg" viewBox="0 0 180 144" fill="none">
  <g transform="translate(58 10)">
    <g stroke="#96A0B4" stroke-opacity=".72" stroke-width="3">
      <path d="M16 16H48M16 32H48M16 48H48M16 16V48M32 16V48M48 16V48"/>
    </g>
    <g stroke="#E8ECF3" stroke-width="2.5">
      <circle cx="16" cy="16" r="3.75"/>
      <circle cx="32" cy="16" r="3.75"/>
      <circle cx="48" cy="16" r="3.75"/>
      <circle cx="16" cy="32" r="3.75"/>
      <circle cx="48" cy="32" r="3.75"/>
      <circle cx="16" cy="48" r="3.75"/>
      <circle cx="32" cy="48" r="3.75"/>
      <circle cx="48" cy="48" r="3.75"/>
    </g>
    <circle cx="32" cy="32" r="5.5" fill="#7B61FF" stroke="#E8ECF3" stroke-width="2.5"/>
  </g>
  <g transform="translate(22 58) scale(.63)">
    <g stroke="#E8ECF3" stroke-width="8.5" stroke-linecap="square" stroke-linejoin="miter">
      <path d="M20 16v22c0 8 6 14 14 14h6c8 0 14-6 14-14V16"/>
      <path d="M92 52V12h18c12 0 20 7 20 18s-8 18-20 18H92"/>
      <path d="M110 34l22 18"/>
      <path d="M164 12v40"/>
      <path d="M194 12l-30 20 30 20"/>
    </g>
  </g>
  <text x="90" y="130" text-anchor="middle" fill="#96A0B4" font-family="Geist, Inter, Arial, sans-serif" font-size="14" font-weight="600" letter-spacing=".08em">Universal Runtime Kernel</text>
</svg>
