<!--
  Company: EonHive Inc.
  Title: URK Horizontal Lockup On Light
  Purpose: Full public horizontal lockup for light surfaces.
  Author: Stan Nesi
  Created: 2026-05-01
  Updated: 2026-05-01
  Notes: Vibe coded with Codex.
-->
<svg xmlns="http://www.w3.org/2000/svg" viewBox="0 0 430 84" fill="none">
  <g transform="translate(10 10)">
    <g stroke="#5E6A7C" stroke-opacity=".72" stroke-width="3">
      <path d="M16 16H48M16 32H48M16 48H48M16 16V48M32 16V48M48 16V48"/>
    </g>
    <g stroke="#161C28" stroke-width="2.5">
      <circle cx="16" cy="16" r="3.75"/>
      <circle cx="32" cy="16" r="3.75"/>
      <circle cx="48" cy="16" r="3.75"/>
      <circle cx="16" cy="32" r="3.75"/>
      <circle cx="48" cy="32" r="3.75"/>
      <circle cx="16" cy="48" r="3.75"/>
      <circle cx="32" cy="48" r="3.75"/>
      <circle cx="48" cy="48" r="3.75"/>
    </g>
    <circle cx="32" cy="32" r="5.5" fill="#6C4DFF" stroke="#161C28" stroke-width="2.5"/>
  </g>
  <g transform="translate(82 10) scale(.78)">
    <g stroke="#161C28" stroke-width="8.5" stroke-linecap="square" stroke-linejoin="miter">
      <path d="M20 16v22c0 8 6 14 14 14h6c8 0 14-6 14-14V16"/>
      <path d="M92 52V12h18c12 0 20 7 20 18s-8 18-20 18H92"/>
      <path d="M110 34l22 18"/>
      <path d="M164 12v40"/>
      <path d="M194 12l-30 20 30 20"/>
    </g>
  </g>
  <text x="262" y="47" fill="#5E6A7C" font-family="Geist, Inter, Arial, sans-serif" font-size="18" font-weight="600" letter-spacing=".08em">— Universal Runtime Kernel</text>
</svg>
